<svg xmlns="http://www.w3.org/2000/svg" viewBox="0 0 512 512" width="512" height="512">
  <rect width="512" height="512" rx="82" fill="#0F1B2D"/>
  <g transform="translate(256,256)">
    <g fill="none" stroke="#FBBF24" stroke-width="4.6">
      <polygon points="0,-46 39.8,-23 39.8,23 0,46 -39.8,23 -39.8,-23"/>
      <polygon points="0,-138 39.8,-115 39.8,-69 0,-46 -39.8,-69 -39.8,-115"/>
      <polygon points="69,-92 108.8,-69 108.8,-23 69,0 29.2,-23 29.2,-69"/>
      <polygon points="69,0 108.8,23 108.8,69 69,92 29.2,69 29.2,23"/>
      <polygon points="0,46 39.8,69 39.8,115 0,138 -39.8,115 -39.8,69"/>
      <polygon points="-69,0 -29.2,23 -29.2,69 -69,92 -108.8,69 -108.8,23"/>
      <polygon points="-69,-92 -29.2,-69 -29.2,-23 -69,0 -108.8,-23 -108.8,-69"/>
    </g>
    <g fill="#FBBF24" fill-opacity="0.15">
      <polygon points="0,-46 39.8,-23 39.8,23 0,46 -39.8,23 -39.8,-23"/>
      <polygon points="69,-92 108.8,-69 108.8,-23 69,0 29.2,-23 29.2,-69"/>
      <polygon points="-69,0 -29.2,23 -29.2,69 -69,92 -108.8,69 -108.8,23"/>
    </g>
    <polygon fill="#FBBF24" fill-opacity="0.5" points="0,-46 39.8,-23 39.8,23 0,46 -39.8,23 -39.8,-23"/>
  </g>
</svg>
